#!OML:ASF H:\Terrain\Walking\May29\JustinRory\Justin.ASF
:FULLY-SPECIFIED
:DEGREES
591
root 10.474701596806387 17.509898403193613 -4.063714171656687 -41.843603273453084 -19.810812874251496 -45.73012630738522 
lowerback 3.403320119760479 1.5659086946107785 0.6572353652694611 
upperback 0.17858745808383233 2.14716497005988 2.1313251896207586 
thorax -1.721625778443114 1.0845369700598801 1.7421883532934133 
lowerneck -15.671249301397205 -3.8821036926147707 -11.704308582834331 
upperneck 22.860142914171657 -3.2946008083832337 2.918901017964072 
head 10.181620758483033 -2.2969955888223557 2.52713373253493 
rclavicle 3.7980610379241513e-14 -7.312201896207585e-15 
rhumerus -22.758656886227545 -9.654150199600798 -82.97592934131737 
rradius 27.811702395209583 
rwrist -5.12167929740519 
rhand -13.370173453093813 -249.04544411177648 
rfingers 7.12502 
rthumb 12.736388223552895 -8.457435768463073 
lclavicle 3.7980610379241513e-14 -7.312201896207585e-15 
lhumerus -29.95004850299401 15.419015768463073 77.55943572854291 
lradius 38.78256367265469 
lwrist -6.987516027944112 
lhand 3.1761440918163673 39.36914830339322 
lfingers 7.12502 
lthumb 28.628479241516963 67.19239620758484 
rfemur -9.54975139720559 -2.5983661976047903 20.922631736526945 
rtibia 30.820969261477046 
rfoot -12.634831736526946 -7.6517750499002 
rtoes -2.13869876247505 
lfemur -14.740540718562873 4.486075269461078 -14.769197205588823 
ltibia 32.146156886227544 
lfoot -16.184586976047903 11.509863073852296 
ltoes -8.855620858283434 
592
root 10.471435209580838 17.51080479041916 -4.01065748502994 -42.20266017964071 -19.73955137724551 -46.07196107784431 
lowerback 3.399439640718563 1.5711669161676647 0.6665479041916169 
upperback 0.178093005748503 2.154505089820359 2.1303544311377247 
thorax -1.7194516646706588 1.0882100898203593 1.7358739401197605 
lowerneck -15.680052095808383 -3.8771489221556887 -11.700574251497006 
upperneck 22.86107125748503 -3.2872245748503 2.9132509461077847 
head 10.182937724550898 -2.294383233532934 2.5253888023952094 
rclavicle 3.8184068862275445e-14 -7.284824311377246e-15 
rhumerus -22.760429341317366 -9.648819401197605 -82.9628119760479 
rradius 27.841492814371257 
rwrist -5.164746107784431 
rhand -13.368879640718562 -248.32096766467066 
rfingers 7.12502 
rthumb 12.737635329341318 -8.451442694610778 
lclavicle 3.8184068862275445e-14 -7.284824311377246e-15 
lhumerus -29.971454491017965 15.405252694610777 77.56829281437125 
lradius 38.75960898203593 
lwrist -6.993281916167665 
lhand 3.1716277245508984 39.36495508982036 
lfingers 7.12502 
lthumb 28.624162275449102 67.1889113772455 
rfemur -9.502295808383234 -2.5907244071856286 20.93670479041916 
rtibia 30.81609221556886 
rfoot -12.621984790419162 -7.623054850299401 
rtoes -2.1445837125748506 
lfemur -14.774277844311376 4.477734191616767 -14.766808383233533 
ltibia 32.13112934131736 
lfoot -16.14001807185629 11.483350778443114 
ltoes -8.841047425149702 
593
root 10.468168822355288 17.51171117764471 -3.9576007984031936 -42.561717085828334 -19.66828988023952 -46.41379584830339 
lowerback 3.3955591616766467 1.5764251377245508 0.6758604431137725 
upperback 0.17759855341317365 2.1618452095808385 2.129383672654691 
thorax -1.7172775508982037 1.0918832095808382 1.7295595269461077 
lowerneck -15.688854890219561 -3.8721941516966067 -11.69683992015968 
upperneck 22.861999600798402 -3.279848341317366 2.9076008742514974 
head 10.184254690618761 -2.291770878243513 2.523643872255489 
rclavicle 3.838752734530938e-14 -7.257446726546906e-15 
rhumerus -22.762201796407187 -9.643488602794411 -82.94969461077845 
rradius 27.871283233532935 
rwrist -5.207812918163673 
rhand -13.367585828343314 -247.5964912175649 
rfingers 7.12502 
rthumb 12.73888243512974 -8.445449620758483 
lclavicle 3.838752734530938e-14 -7.257446726546906e-15 
lhumerus -29.992860479041916 15.391489620758481 77.5771499001996 
lradius 38.73665429141717 
lwrist -6.999047804391218 
lhand 3.167111357285429 39.36076187624751 
lfingers 7.12502 
lthumb 28.619845309381237 67.18542654690619 
rfemur -9.454840219560879 -2.583082616766467 20.950777844311375 
rtibia 30.811215169660677 
rfoot -12.609137844311377 -7.5943346506986025 
rtoes -2.1504686626746508 
lfemur -14.80801497005988 4.469393113772456 -14.764419560878244 
ltibia 32.116101796407186 
lfoot -16.095449167664672 11.456838483033932 
ltoes -8.826473992015968 
594
root 10.46490243512974 17.512617564870258 -3.9045441117764472 -42.92077399201596 -19.597028383233532 -46.75563061876247 
lowerback 3.3916786826347307 1.581683359281437 0.6851729820359282 
upperback 0.1771041010778443 2.1691853293413175 2.128412914171657 
thorax -1.7151034371257485 1.0955563293413173 1.723245113772455 
lowerneck -15.69765768463074 -3.867239381237525 -11.693105588822355 
upperneck 22.862927944111775 -3.2724721077844316 2.9019508023952096 
head 10.185571656686626 -2.289158522954092 2.5218989421157683 
rclavicle 3.8590985828343314e-14 -7.230069141716567e-15 
rhumerus -22.763974251497004 -9.638157804391216 -82.93657724550899 
rradius 27.901073652694613 
rwrist -5.250879728542914 
rhand -13.366292015968064 -246.8720147704591 
rfingers 7.12502 
rthumb 12.740129540918163 -8.439456546906188 
lclavicle 3.8590985828343314e-14 -7.230069141716567e-15 
lhumerus -30.014266467065866 15.377726546906187 77.58600698602794 
lradius 38.7136996007984 
lwrist -7.00481369261477 
lhand 3.16259499001996 39.356568662674654 
lfingers 7.12502 
lthumb 28.615528343313372 67.18194171656687 
rfemur -9.407384630738523 -2.575440826347305 20.96485089820359 
rtibia 30.806338123752493 
rfoot -12.596290898203593 -7.5656144510978045 
rtoes -2.156353612774451 
lfemur -14.841752095808381 4.4610520359281445 -14.762030738522954 
ltibia 32.101074251497 
lfoot -16.050880263473054 11.43032618762475 
ltoes -8.811900558882236 
595
root 10.461636047904191 17.51352395209581 -3.851487425149701 -43.279830898203585 -19.525766886227544 -47.09746538922155 
lowerback 3.3877982035928147 1.5869415808383234 0.694485520958084 
upperback 0.17660964874251497 2.1765254491017965 2.1274421556886227 
thorax -1.7129293233532934 1.0992294491017964 1.7169307005988024 
lowerneck -15.706460479041917 -3.862284610778443 -11.68937125748503 
upperneck 22.86385628742515 -3.2650958742514975 2.8963007305389223 
head 10.186888622754491 -2.286546167664671 2.520154011976048 
rclavicle 3.8794444311377245e-14 -7.202691556886229e-15 
rhumerus -22.765746706586825 -9.632827005988023 -82.92345988023952 
rradius 27.930864071856288 
rwrist -5.293946538922156 
rhand -13.364998203592814 -246.14753832335333 
rfingers 7.12502 
rthumb 12.741376646706588 -8.43346347305389 
lclavicle 3.8794444311377245e-14 -7.202691556886229e-15 
lhumerus -30.03567245508982 15.363963473053891 77.59486407185628 
lradius 38.69074491017964 
lwrist -7.010579580838323 
lhand 3.158078622754491 39.3523754491018 
lfingers 7.12502 
lthumb 28.611211377245507 67.17845688622754 
rfemur -9.359929041916168 -2.5677990359281435 20.97892395209581 
rtibia 30.801461077844312 
rfoot -12.58344395209581 -7.5368942514970065 
rtoes -2.1622385628742515 
lfemur -14.875489221556885 4.452710958083832 -14.759641916167665 
ltibia 32.08604670658683 
lfoot -16.00631135928144 11.40381389221557 
ltoes -8.797327125748504 
596
root 10.458369660678642 17.514430339321358 -3.7984307385229545 -43.63888780439121 -19.454505389221556 -47.43930015968063 
lowerback 3.3839177245508982 1.5921998023952095 0.7037980598802396 
upperback 0.17611519640718565 2.1838655688622755 2.126471397205589 
thorax -1.7107552095808385 1.1029025688622753 1.7106162874251498 
lowerneck -15.715263273453093 -3.8573298403193617 -11.685636926147705 
upperneck 22.864784630738523 -3.2577196407185633 2.890650658682635 
head 10.188205588822354 -2.2839338123752495 2.518409081836327 
rclavicle 3.8997902794411176e-14 -7.175313972055889e-15 
rhumerus -22.767519161676645 -9.62749620758483 -82.91034251497007 
rradius 27.960654491017966 
rwrist -5.337013349301397 
rhand -13.363704391217565 -245.42306187624752 
rfingers 7.12502 
rthumb 12.74262375249501 -8.427470399201596 
lclavicle 3.8997902794411176e-14 -7.175313972055889e-15 
lhumerus -30.057078443113774 15.350200399201595 77.60372115768463 
lradius 38.66779021956088 
lwrist -7.016345469061876 
lhand 3.153562255489022 39.348182235528945 
lfingers 7.12502 
lthumb 28.606894411177645 67.17497205588822 
rfemur -9.312473453093812 -2.560157245508982 20.992997005988023 
rtibia 30.796584031936128 
rfoot -12.570597005988024 -7.508174051896208 
rtoes -2.168123512974052 
lfemur -14.909226347305388 4.444369880239521 -14.757253093812375 
ltibia 32.071019161676645 
lfoot -15.961742455089823 11.377301596806387 
ltoes -8.78275369261477 
